<?xml version="1.0" encoding="utf-8"?>
<!-- Generator: Adobe Illustrator 26.0.3, SVG Export Plug-In . SVG Version: 6.00 Build 0)  -->
<svg version="1.0" id="Layer_1" xmlns="http://www.w3.org/2000/svg" xmlns:xlink="http://www.w3.org/1999/xlink" x="0px" y="0px"
	 viewBox="0 0 900.1 634.2" style="enable-background:new 0 0 900.1 634.2;" xml:space="preserve">
<g id="Layer_2">
	<g id="Layer_1-2">
		<path d="M98.2,390.3c7.5,1.6,10.9,4.3,10.9,9.5c0,5.8-4.8,9.5-11.4,9.5c-5.1,0.1-10-1.9-13.7-5.4l2.3-2.8c3,3.1,7.2,4.8,11.5,4.7
			c4.5,0,7.5-2.3,7.5-5.7c0-3.2-1.6-4.9-8.7-6.4c-7.7-1.6-11.2-4.1-11.2-9.8c0-5.6,4.6-9.2,11-9.2c4.3-0.1,8.5,1.3,11.8,4.1
			l-2.2,2.9c-2.7-2.3-6.1-3.6-9.7-3.6c-4.3,0-7.1,2.4-7.1,5.5s1.7,5,9.1,6.5"/>
		<rect x="119.3" y="375.3" width="3.8" height="33.5"/>
		<polygon points="159.7,375.3 163.3,375.3 163.3,408.8 160.3,408.8 138.7,381.4 138.7,408.8 135,408.8 135,375.3 138.6,375.3 
			159.7,402.2 		"/>
		<path d="M190,409.4c-10.5,0-17-7.6-17-17.3c0-9.2,6.8-17.3,16.8-17.3c4.6-0.2,9.1,1.4,12.5,4.4l-2.5,2.9
			c-2.8-2.6-6.4-3.9-10.2-3.8c-7.4,0-12.7,6.3-12.7,13.8c0,8,5.1,14,13.2,14c3.5,0,6.9-1.2,9.7-3.3v-8.3h-10.2V391h13.8v13.3
			C199.7,407.6,195,409.4,190,409.4"/>
		<path d="M227.5,379.5l-7.6,17.1H235L227.5,379.5z M244.5,408.8h-4.1l-3.9-8.8h-18.2l-4,8.8h-3.9l15.3-33.7h3.5L244.5,408.8z"/>
		<path d="M264.8,378.8h-8.5v14.7h8.2c5.5,0,9.2-3,9.2-7.4C273.8,381.3,270.2,378.8,264.8,378.8 M264.5,397h-8.1v11.8h-3.8v-33.5
			h12.5c7.6,0,12.5,4,12.5,10.7C277.6,393.3,271.6,397,264.5,397"/>
		<path d="M302,378.2c-7.6,0-13.1,6.1-13.1,13.8c0,7.7,5.6,13.9,13.2,13.9s13-6.1,13-13.8C315.1,384.4,309.6,378.2,302,378.2
			 M302,409.4c-9.6,0.1-17.4-7.5-17.5-17.1c-0.1-9.6,7.5-17.4,17.1-17.5c9.6-0.1,17.4,7.5,17.5,17.1c0,0,0,0,0,0v0.1
			c0.3,9.3-7,17-16.2,17.3c0,0,0,0,0,0H302"/>
		<path d="M342.6,378.8h-10.3v13.6h10.3c5,0,8.6-2.6,8.6-6.9C351.1,381.1,348,378.8,342.6,378.8 M351.5,408.8l-9.8-13h-9.6v13h-3.8
			v-33.5h14.4c7.4,0,12.1,4,12.1,10c0,5.6-3.8,8.9-9.1,9.8l10.2,13.7L351.5,408.8z"/>
		<polygon points="389.4,378.8 369,378.8 369,390.2 387.2,390.2 387.2,393.6 369,393.6 369,405.3 389.6,405.3 389.6,408.8 
			365.2,408.8 365.2,375.3 389.4,375.3 		"/>
		<path d="M447.5,394.5c0,9.8-5.6,14.8-14,14.8s-13.9-5.1-13.9-14.5v-19.5h3.8v19.2c0,7.2,3.8,11.3,10.2,11.3
			c6.2,0,10.1-3.7,10.1-11v-19.5h3.8L447.5,394.5z"/>
		<polygon points="483.2,375.3 486.9,375.3 486.9,408.8 483.9,408.8 462.3,381.4 462.3,408.8 458.6,408.8 458.6,375.3 462.2,375.3 
			483.2,402.2 		"/>
		<rect x="498.9" y="375.3" width="3.8" height="33.5"/>
		<polygon points="539.1,375.3 543.1,375.3 528.8,409 525.4,409 511,375.3 515.2,375.3 527.1,404.2 		"/>
		<polygon points="575.3,378.8 554.9,378.8 554.9,390.2 573.2,390.2 573.2,393.6 554.9,393.6 554.9,405.3 575.6,405.3 575.6,408.8 
			551.2,408.8 551.2,375.3 575.3,375.3 		"/>
		<path d="M599.4,378.8h-10.3v13.6h10.3c5,0,8.6-2.6,8.6-6.9C608,381.1,604.8,378.8,599.4,378.8 M608.4,408.8l-9.8-13H589v13h-3.8
			v-33.5h14.4c7.4,0,12.1,4,12.1,10c0,5.6-3.8,8.9-9.1,9.8l10.3,13.7L608.4,408.8z"/>
		<path d="M634,390.3c7.5,1.6,10.9,4.3,10.9,9.5c0,5.8-4.8,9.5-11.4,9.5c-5.1,0.1-10-1.9-13.7-5.4l2.3-2.8c3,3.1,7.2,4.8,11.5,4.7
			c4.5,0,7.5-2.3,7.5-5.7c0-3.2-1.6-4.9-8.7-6.4c-7.7-1.6-11.2-4.1-11.2-9.8c0-5.6,4.6-9.2,11-9.2c4.3-0.1,8.5,1.3,11.8,4.1
			l-2.2,2.9c-2.7-2.3-6.1-3.6-9.7-3.6c-4.4,0-7.1,2.4-7.1,5.5s1.7,5,9.1,6.5"/>
		<rect x="655.1" y="375.3" width="3.8" height="33.5"/>
		<polygon points="682.8,408.8 679,408.8 679,378.8 667.8,378.8 667.8,375.3 694,375.3 694,378.8 682.8,378.8 		"/>
		<polygon points="716.3,408.8 712.5,408.8 712.5,395.6 698.6,375.3 703.2,375.3 714.5,392.1 725.9,375.3 730.3,375.3 716.3,395.5 
					"/>
		<path d="M765.5,378.2c-7.7,0-13.1,6.1-13.1,13.8c0,7.7,5.5,13.9,13.2,13.9s13-6.1,13-13.8C778.6,384.4,773,378.2,765.5,378.2
			 M765.4,409.4c-9.6,0.1-17.4-7.6-17.5-17.1c-0.1-9.6,7.6-17.4,17.1-17.5c9.6-0.1,17.4,7.6,17.5,17.1c0,0,0,0,0,0v0.1
			c0.3,9.3-7,17-16.2,17.3c0,0,0,0,0,0H765.4"/>
		<polygon points="816,378.8 795.8,378.8 795.8,390.8 813.9,390.8 813.9,394.2 795.8,394.2 795.8,408.8 792,408.8 792,375.3 
			816,375.3 		"/>
		<polygon points="99.1,459 95.3,459 95.3,429 84,429 84,425.5 110.3,425.5 110.3,429 99.1,429 		"/>
		<polygon points="144,429 123.6,429 123.6,440.4 141.8,440.4 141.8,443.8 123.6,443.8 123.6,455.5 144.2,455.5 144.2,459 
			119.8,459 119.8,425.5 144,425.5 		"/>
		<path d="M170.3,459.6c-9.6-0.4-17-8.4-16.6-18c0.4-9.6,8.4-17,18-16.6c4.5,0.2,8.7,2.1,11.8,5.3l-2.6,2.8
			c-2.7-2.9-6.5-4.6-10.5-4.6c-7.4,0-13,6-13,13.8c0,7.8,5.6,13.9,13,13.9c4.6,0,7.6-1.8,10.8-4.9l2.5,2.4
			C180.2,457.5,175.4,459.7,170.3,459.6"/>
		<polygon points="197.6,443.9 197.6,459 193.8,459 193.8,425.5 197.6,425.5 197.6,440.4 216.9,440.4 216.9,425.5 220.7,425.5 
			220.7,459 216.9,459 216.9,443.9 		"/>
		<polygon points="258.8,425.5 262.5,425.5 262.5,459 259.5,459 237.9,431.6 237.9,459 234.2,459 234.2,425.5 237.7,425.5 
			258.8,452.4 		"/>
		<path d="M290.1,428.5c-7.6,0-13,6.1-13,13.8c0,7.7,5.5,13.9,13.2,13.9s13-6.1,13-13.8C303.3,434.7,297.8,428.5,290.1,428.5
			 M290.1,459.6c-9.6,0.1-17.4-7.6-17.5-17.1c-0.1-9.6,7.6-17.4,17.1-17.5c9.6-0.1,17.4,7.6,17.5,17.1c0,0,0,0,0,0v0.2
			c0.3,9.3-7,17-16.2,17.3L290.1,459.6"/>
		<polygon points="317.9,425.5 321.7,425.5 321.7,455.5 340.5,455.5 340.5,459 317.9,459 		"/>
		<path d="M362.3,428.5c-7.6,0-13.1,6.1-13.1,13.8c0,7.7,5.5,13.9,13.2,13.9s13.1-6.1,13.1-13.8c0.3-7.4-5.4-13.6-12.8-13.8
			c0,0,0,0,0,0L362.3,428.5 M362.3,459.6c-9.6,0.1-17.4-7.6-17.5-17.1c-0.1-9.6,7.6-17.4,17.1-17.5s17.4,7.6,17.5,17.1c0,0,0,0,0,0
			v0.2c0.3,9.3-7,17-16.2,17.3L362.3,459.6"/>
		<path d="M405.3,459.6c-10.5,0-17-7.6-17-17.3c0-9.2,6.8-17.3,16.8-17.3c4.6-0.2,9.1,1.4,12.5,4.4l-2.4,2.9
			c-2.8-2.6-6.4-3.9-10.2-3.8c-7.4,0-12.7,6.3-12.7,13.8c0,8,5.1,14,13.2,14c3.5,0,6.9-1.2,9.7-3.3v-8.2h-10.2v-3.4h13.8v13.3
			c-3.7,3.3-8.5,5.1-13.4,5.1"/>
		<polygon points="442.5,459 438.7,459 438.7,445.8 424.8,425.5 429.4,425.5 440.7,442.3 452,425.5 456.4,425.5 442.5,445.7 		"/>
		<path d="M494,429.7l-7.6,17.1h15.2L494,429.7z M511,459h-4l-4-8.9h-18.2L481,459H477l15.2-33.7h3.5L511,459z"/>
		<polygon points="544.9,425.5 548.6,425.5 548.6,459 545.6,459 524,431.6 524,459 520.3,459 520.3,425.5 523.8,425.5 544.9,452.4 
					"/>
		<path d="M573.7,429h-7.8v26.5h7.8c8.5,0,13.9-5.7,13.9-13.2C587.5,434.8,582.1,429,573.7,429 M573.7,459H562v-33.5h11.6
			c10.5,0,17.8,7.2,17.8,16.7C591.5,451.7,584.2,459,573.7,459"/>
		<path d="M631.4,429h-7.8v26.5h7.8c8.5,0,13.9-5.7,13.9-13.2C645.3,434.8,639.9,429,631.4,429 M631.4,459h-11.6v-33.5h11.6
			c10.5,0,17.8,7.2,17.8,16.7C649.2,451.7,642,459,631.4,459"/>
		<polygon points="684.5,429 664.1,429 664.1,440.4 682.3,440.4 682.3,443.8 664.1,443.8 664.1,455.5 684.7,455.5 684.7,459 
			660.3,459 660.3,425.5 684.5,425.5 		"/>
		<path d="M707.4,440.5c7.5,1.6,10.9,4.3,10.9,9.5c0,5.8-4.8,9.5-11.4,9.5c-5.1,0.1-10-1.9-13.7-5.4l2.3-2.8c3,3.1,7.2,4.8,11.5,4.8
			c4.5,0,7.5-2.3,7.5-5.7c0-3.2-1.6-4.9-8.7-6.4c-7.7-1.6-11.2-4.2-11.2-9.8c0-5.6,4.6-9.2,11-9.2c4.3-0.1,8.5,1.3,11.8,4.1l-2.2,3
			c-2.7-2.3-6.1-3.6-9.7-3.6c-4.3,0-7.1,2.4-7.1,5.5S700.1,438.9,707.4,440.5"/>
		<rect x="730.4" y="425.5" width="3.8" height="33.5"/>
		<path d="M761.7,459.6c-10.5,0-17-7.6-17-17.3c0-9.2,6.8-17.3,16.8-17.3c4.6-0.2,9.1,1.4,12.5,4.4l-2.4,2.9
			c-2.8-2.6-6.4-3.9-10.2-3.8c-7.4,0-12.7,6.3-12.7,13.8c0,8,5.1,14,13.2,14c3.5,0,6.9-1.2,9.7-3.3v-8.2h-10.2v-3.4h13.8v13.3
			c-3.7,3.3-8.5,5.1-13.4,5.1"/>
		<polygon points="812.3,425.5 816,425.5 816,459 813,459 791.4,431.6 791.4,459 787.7,459 787.7,425.5 791.2,425.5 812.3,452.4 		
			"/>
		<rect x="84" y="287.5" width="129.7" height="16.7"/>
		<rect x="121.7" y="212.2" width="129.7" height="16.7"/>
		<polygon points="251.4,341.9 84,341.9 84,325.1 234.6,325.1 234.6,266.6 84,266.6 84,174.6 251.4,174.6 251.4,191.3 100.8,191.3 
			100.8,249.9 251.4,249.9 		"/>
		<rect x="347.6" y="174.6" width="16.7" height="92"/>
		<polygon points="439.6,341.9 272.3,341.9 272.3,174.6 289,174.6 289,325.1 422.9,325.1 422.9,174.6 439.6,174.6 		"/>
		<polygon points="401.9,304.2 309.9,304.2 309.9,174.6 326.7,174.6 326.7,287.5 385.2,287.5 385.2,174.6 401.9,174.6 		"/>
		<rect x="648.7" y="249.9" width="92" height="16.7"/>
		<polygon points="816,341.9 648.7,341.9 648.7,325.1 799.3,325.1 799.3,191.3 648.7,191.3 648.7,174.6 816,174.6 		"/>
		<polygon points="778.4,304.2 648.7,304.2 648.7,287.5 761.7,287.5 761.7,228.9 648.7,228.9 648.7,212.2 778.4,212.2 		"/>
		<polygon points="460.5,174.6 460.5,191.3 535.8,191.3 535.8,341.9 552.5,341.9 552.5,191.3 627.8,191.3 627.8,174.6 		"/>
		<polygon points="573.4,341.9 590.2,341.9 590.2,228.9 627.8,228.9 627.8,212.2 573.4,212.2 		"/>
		<rect x="611.1" y="249.9" width="16.7" height="92"/>
		<rect x="460.5" y="249.9" width="16.7" height="92"/>
		<polygon points="460.5,228.9 498.1,228.9 498.1,341.9 514.9,341.9 514.9,212.2 460.5,212.2 		"/>
	</g>
</g>
</svg>
